# xmcd
#
# Track frame offsets:
#	150
#	18403
#	35955
#	55519
#	71118
#	88592
#	109148
#	133661
#	155731
#	176724
#	198635
#	215464
#	231175
#	244757
#	264455
#	285683
#	301388
#
# Disc length: 4336 seconds
#
# Revision: 3
# Processed by: cddbd v1.5.2PL0 Copyright (c) Steve Scherf et al.
# Submitted via: audiograbber 1.83.01
#
DISCID=0010ee11
DTITLE=Lou Rawls - The Essential Lou Rawls [Disc 2]
DYEAR=2007
DGENRE=Easy Listening
TTITLE0=Lady Love
TTITLE1=One Life To Live
TTITLE2=There Will Be Love
TTITLE3=I Wish It Were Yesterday
TTITLE4=Not The Staying Kind
TTITLE5=If I Coulda, Woulda, Shoulda
TTITLE6=Let Me Be Good To You
TTITLE7=Sit Down And Talk To Me
TTITLE8=Ain't That Loving You (For More Reasons Than One) (featuring The Jones 
TTITLE8=Girls)
TTITLE9=You Are
TTITLE10=Be Anything (But Be Mine)
TTITLE11=She's Gone
TTITLE12=I Can't Make It Alone
TTITLE13=How Long, How Long Blues
TTITLE14=Your Good Thing (Is About To End)
TTITLE15=Show Business
TTITLE16=You'll Never Find Another Love Like Mine (Live)
EXTD=YEAR: 2007
EXTT0=
EXTT1=
EXTT2=
EXTT3=
EXTT4=
EXTT5=
EXTT6=
EXTT7=
EXTT8=
EXTT9=
EXTT10=
EXTT11=
EXTT12=
EXTT13=
EXTT14=
EXTT15=
EXTT16=
PLAYORDER=
